<svg width="56" height="56" viewBox="0 0 56 56" fill="none" xmlns="http://www.w3.org/2000/svg">
<rect width="56" height="56" rx="16" fill="#FAFAFA"/>
<path d="M39.6133 34.2801L36.3867 31.0534C36.2627 30.9284 36.1152 30.8293 35.9528 30.7616C35.7903 30.6939 35.616 30.659 35.44 30.659C35.264 30.659 35.0897 30.6939 34.9272 30.7616C34.7648 30.8293 34.6173 30.9284 34.4933 31.0534L29.72 35.8267C29.5964 35.9513 29.4987 36.0991 29.4323 36.2615C29.366 36.424 29.3323 36.5979 29.3333 36.7734V40.0001C29.3333 40.3537 29.4738 40.6928 29.7239 40.9429C29.9739 41.1929 30.313 41.3334 30.6667 41.3334H33.8933C34.0688 41.3344 34.2428 41.3008 34.4052 41.2344C34.5677 41.1681 34.7154 41.0703 34.84 40.9467L39.6133 36.1734C39.7383 36.0495 39.8375 35.902 39.9052 35.7395C39.9729 35.577 40.0077 35.4028 40.0077 35.2267C40.0077 35.0507 39.9729 34.8765 39.9052 34.714C39.8375 34.5515 39.7383 34.404 39.6133 34.2801V34.2801ZM33.3333 38.6667H32V37.3334L35.44 33.8934L36.7733 35.2267L33.3333 38.6667ZM25.3333 38.6667H20C19.6464 38.6667 19.3072 38.5263 19.0572 38.2762C18.8071 38.0262 18.6667 37.687 18.6667 37.3334V18.6667C18.6667 18.3131 18.8071 17.974 19.0572 17.7239C19.3072 17.4739 19.6464 17.3334 20 17.3334H26.6667V21.3334C26.6667 22.3943 27.0881 23.4117 27.8382 24.1618C28.5884 24.912 29.6058 25.3334 30.6667 25.3334H34.6667V26.6667C34.6667 27.0204 34.8071 27.3595 35.0572 27.6096C35.3072 27.8596 35.6464 28.0001 36 28.0001C36.3536 28.0001 36.6928 27.8596 36.9428 27.6096C37.1929 27.3595 37.3333 27.0204 37.3333 26.6667V24.0001C37.3333 24.0001 37.3333 24.0001 37.3333 23.9201C37.3194 23.7976 37.2926 23.6769 37.2533 23.5601V23.4401C37.1892 23.303 37.1037 23.177 37 23.0667L29 15.0667C28.8898 14.963 28.7638 14.8775 28.6267 14.8134C28.5869 14.8078 28.5465 14.8078 28.5067 14.8134L28.08 14.6667H20C18.9391 14.6667 17.9217 15.0882 17.1716 15.8383C16.4214 16.5885 16 17.6059 16 18.6667V37.3334C16 38.3943 16.4214 39.4117 17.1716 40.1618C17.9217 40.912 18.9391 41.3334 20 41.3334H25.3333C25.687 41.3334 26.0261 41.1929 26.2761 40.9429C26.5262 40.6928 26.6667 40.3537 26.6667 40.0001C26.6667 39.6465 26.5262 39.3073 26.2761 39.0573C26.0261 38.8072 25.687 38.6667 25.3333 38.6667ZM29.3333 19.2134L32.7867 22.6667H30.6667C30.313 22.6667 29.9739 22.5263 29.7239 22.2762C29.4738 22.0262 29.3333 21.687 29.3333 21.3334V19.2134ZM22.6667 30.6667H30.6667C31.0203 30.6667 31.3594 30.5263 31.6095 30.2762C31.8595 30.0262 32 29.687 32 29.3334C32 28.9798 31.8595 28.6407 31.6095 28.3906C31.3594 28.1406 31.0203 28.0001 30.6667 28.0001H22.6667C22.313 28.0001 21.9739 28.1406 21.7239 28.3906C21.4738 28.6407 21.3333 28.9798 21.3333 29.3334C21.3333 29.687 21.4738 30.0262 21.7239 30.2762C21.9739 30.5263 22.313 30.6667 22.6667 30.6667ZM22.6667 25.3334H24C24.3536 25.3334 24.6928 25.1929 24.9428 24.9429C25.1929 24.6928 25.3333 24.3537 25.3333 24.0001C25.3333 23.6465 25.1929 23.3073 24.9428 23.0573C24.6928 22.8072 24.3536 22.6667 24 22.6667H22.6667C22.313 22.6667 21.9739 22.8072 21.7239 23.0573C21.4738 23.3073 21.3333 23.6465 21.3333 24.0001C21.3333 24.3537 21.4738 24.6928 21.7239 24.9429C21.9739 25.1929 22.313 25.3334 22.6667 25.3334ZM25.3333 33.3334H22.6667C22.313 33.3334 21.9739 33.4739 21.7239 33.7239C21.4738 33.974 21.3333 34.3131 21.3333 34.6667C21.3333 35.0204 21.4738 35.3595 21.7239 35.6096C21.9739 35.8596 22.313 36.0001 22.6667 36.0001H25.3333C25.687 36.0001 26.0261 35.8596 26.2761 35.6096C26.5262 35.3595 26.6667 35.0204 26.6667 34.6667C26.6667 34.3131 26.5262 33.974 26.2761 33.7239C26.0261 33.4739 25.687 33.3334 25.3333 33.3334Z" fill="#6C5AD0"/>
</svg>
