<svg width="56" height="56" viewBox="0 0 56 56" fill="none" xmlns="http://www.w3.org/2000/svg">
<rect width="56" height="56" rx="16" fill="#FAFAFA"/>
<path d="M27.3334 38.6667H19.3334C18.9798 38.6667 18.6406 38.5263 18.3906 38.2762C18.1405 38.0262 18 37.687 18 37.3334V18.6667C18 18.3131 18.1405 17.974 18.3906 17.7239C18.6406 17.4739 18.9798 17.3334 19.3334 17.3334H26V21.3334C26 22.3943 26.4215 23.4117 27.1716 24.1618C27.9218 24.912 28.9392 25.3334 30 25.3334H34V32.0001C34 32.3537 34.1405 32.6928 34.3906 32.9429C34.6406 33.1929 34.9798 33.3334 35.3334 33.3334C35.687 33.3334 36.0261 33.1929 36.2762 32.9429C36.5262 32.6928 36.6667 32.3537 36.6667 32.0001V24.0001C36.6667 24.0001 36.6667 24.0001 36.6667 23.9201C36.6528 23.7976 36.626 23.6769 36.5867 23.5601V23.4401C36.5226 23.303 36.4371 23.177 36.3334 23.0667L28.3334 15.0667C28.2232 14.963 28.0971 14.8775 27.96 14.8134C27.9159 14.8057 27.8708 14.8057 27.8267 14.8134C27.6971 14.7441 27.5577 14.6946 27.4134 14.6667H19.3334C18.2725 14.6667 17.2551 15.0882 16.5049 15.8383C15.7548 16.5885 15.3334 17.6059 15.3334 18.6667V37.3334C15.3334 38.3943 15.7548 39.4117 16.5049 40.1618C17.2551 40.912 18.2725 41.3334 19.3334 41.3334H27.3334C27.687 41.3334 28.0261 41.1929 28.2762 40.9429C28.5262 40.6928 28.6667 40.3537 28.6667 40.0001C28.6667 39.6465 28.5262 39.3073 28.2762 39.0573C28.0261 38.8072 27.687 38.6667 27.3334 38.6667ZM28.6667 19.2134L32.12 22.6667H30C29.6464 22.6667 29.3073 22.5263 29.0572 22.2762C28.8072 22.0262 28.6667 21.687 28.6667 21.3334V19.2134ZM22 30.6667H30C30.3537 30.6667 30.6928 30.5263 30.9429 30.2762C31.1929 30.0262 31.3334 29.687 31.3334 29.3334C31.3334 28.9798 31.1929 28.6407 30.9429 28.3906C30.6928 28.1406 30.3537 28.0001 30 28.0001H22C21.6464 28.0001 21.3073 28.1406 21.0572 28.3906C20.8072 28.6407 20.6667 28.9798 20.6667 29.3334C20.6667 29.687 20.8072 30.0262 21.0572 30.2762C21.3073 30.5263 21.6464 30.6667 22 30.6667ZM27.3334 33.3334H22C21.6464 33.3334 21.3073 33.4739 21.0572 33.7239C20.8072 33.974 20.6667 34.3131 20.6667 34.6667C20.6667 35.0204 20.8072 35.3595 21.0572 35.6096C21.3073 35.8596 21.6464 36.0001 22 36.0001H27.3334C27.687 36.0001 28.0261 35.8596 28.2762 35.6096C28.5262 35.3595 28.6667 35.0204 28.6667 34.6667C28.6667 34.3131 28.5262 33.974 28.2762 33.7239C28.0261 33.4739 27.687 33.3334 27.3334 33.3334ZM22 25.3334H23.3334C23.687 25.3334 24.0261 25.1929 24.2762 24.9429C24.5262 24.6928 24.6667 24.3537 24.6667 24.0001C24.6667 23.6465 24.5262 23.3073 24.2762 23.0573C24.0261 22.8072 23.687 22.6667 23.3334 22.6667H22C21.6464 22.6667 21.3073 22.8072 21.0572 23.0573C20.8072 23.3073 20.6667 23.6465 20.6667 24.0001C20.6667 24.3537 20.8072 24.6928 21.0572 24.9429C21.3073 25.1929 21.6464 25.3334 22 25.3334ZM40.28 33.7201C40.1561 33.5951 40.0086 33.4959 39.8461 33.4282C39.6837 33.3605 39.5094 33.3257 39.3334 33.3257C39.1574 33.3257 38.9831 33.3605 38.8206 33.4282C38.6581 33.4959 38.5107 33.5951 38.3867 33.7201L34 38.1201L32.28 36.3867C32.1557 36.2624 32.0081 36.1638 31.8457 36.0965C31.6833 36.0293 31.5092 35.9946 31.3334 35.9946C31.1576 35.9946 30.9835 36.0293 30.821 36.0965C30.6586 36.1638 30.511 36.2624 30.3867 36.3867C30.2624 36.5111 30.1638 36.6587 30.0965 36.8211C30.0292 36.9835 29.9946 37.1576 29.9946 37.3334C29.9946 37.5092 30.0292 37.6833 30.0965 37.8457C30.1638 38.0082 30.2624 38.1558 30.3867 38.2801L33.0534 40.9467C33.1773 41.0717 33.3248 41.1709 33.4873 41.2386C33.6498 41.3063 33.824 41.3411 34 41.3411C34.1761 41.3411 34.3503 41.3063 34.5128 41.2386C34.6753 41.1709 34.8228 41.0717 34.9467 40.9467L40.28 35.6134C40.405 35.4895 40.5042 35.342 40.5719 35.1795C40.6396 35.017 40.6744 34.8428 40.6744 34.6667C40.6744 34.4907 40.6396 34.3165 40.5719 34.154C40.5042 33.9915 40.405 33.844 40.28 33.7201Z" fill="#6C5AD0"/>
</svg>
