<svg width="56" height="56" viewBox="0 0 56 56" fill="none" xmlns="http://www.w3.org/2000/svg">
<rect width="56" height="56" rx="16" fill="#FAFAFA"/>
<path d="M27.0534 32.3867C26.9961 32.4501 26.9426 32.5169 26.8934 32.5867C26.843 32.6611 26.8026 32.7418 26.7734 32.8267C26.735 32.9023 26.708 32.9832 26.6934 33.0667C26.6869 33.1555 26.6869 33.2446 26.6934 33.3334C26.6889 33.5083 26.7254 33.6818 26.8001 33.8401C26.86 34.0055 26.9555 34.1558 27.0799 34.2802C27.2044 34.4047 27.3546 34.5002 27.5201 34.5601C27.6797 34.6306 27.8523 34.6671 28.0268 34.6671C28.2013 34.6671 28.3738 34.6306 28.5334 34.5601C28.6989 34.5002 28.8491 34.4047 28.9736 34.2802C29.098 34.1558 29.1935 34.0055 29.2534 33.8401C29.3126 33.678 29.3398 33.5059 29.3334 33.3334C29.3344 33.1579 29.3008 32.984 29.2344 32.8215C29.1681 32.6591 29.0703 32.5113 28.9468 32.3867C28.8228 32.2618 28.6753 32.1626 28.5129 32.0949C28.3504 32.0272 28.1761 31.9923 28.0001 31.9923C27.8241 31.9923 27.6498 32.0272 27.4873 32.0949C27.3248 32.1626 27.1774 32.2618 27.0534 32.3867ZM28.0001 14.6667C25.363 14.6667 22.7851 15.4487 20.5925 16.9138C18.3998 18.3789 16.6909 20.4613 15.6817 22.8976C14.6725 25.334 14.4085 28.0149 14.923 30.6013C15.4374 33.1877 16.7073 35.5635 18.572 37.4282C20.4367 39.2929 22.8125 40.5627 25.3989 41.0772C27.9853 41.5917 30.6662 41.3276 33.1025 40.3185C35.5389 39.3093 37.6213 37.6003 39.0863 35.4077C40.5514 33.215 41.3334 30.6372 41.3334 28.0001C41.3334 26.2491 40.9885 24.5153 40.3185 22.8976C39.6484 21.28 38.6663 19.8101 37.4282 18.572C36.1901 17.3339 34.7202 16.3518 33.1025 15.6817C31.4849 15.0116 29.751 14.6667 28.0001 14.6667ZM28.0001 38.6667C25.8904 38.6667 23.8281 38.0412 22.074 36.8691C20.3199 35.697 18.9527 34.0311 18.1454 32.082C17.338 30.133 17.1268 27.9882 17.5384 25.9191C17.95 23.85 18.9659 21.9494 20.4576 20.4576C21.9494 18.9658 23.85 17.9499 25.9191 17.5384C27.9883 17.1268 30.133 17.338 32.082 18.1454C34.0311 18.9527 35.697 20.3199 36.8691 22.074C38.0412 23.8281 38.6668 25.8904 38.6668 28.0001C38.6668 30.8291 37.5429 33.5422 35.5426 35.5426C33.5422 37.5429 30.8291 38.6667 28.0001 38.6667ZM28.0001 21.3334C27.2975 21.333 26.6072 21.5176 25.9986 21.8687C25.3901 22.2198 24.8847 22.725 24.5334 23.3334C24.4369 23.4852 24.3722 23.6549 24.343 23.8323C24.3138 24.0098 24.3208 24.1913 24.3636 24.3659C24.4064 24.5406 24.484 24.7048 24.5919 24.8487C24.6998 24.9925 24.8357 25.1131 24.9914 25.2031C25.1471 25.2931 25.3194 25.3506 25.4979 25.3723C25.6764 25.394 25.8574 25.3794 26.0301 25.3292C26.2028 25.2791 26.3636 25.1946 26.5028 25.0808C26.642 24.9669 26.7567 24.8261 26.8401 24.6667C26.9576 24.4633 27.1267 24.2945 27.3304 24.1774C27.5341 24.0603 27.7651 23.9991 28.0001 24.0001C28.3537 24.0001 28.6928 24.1406 28.9429 24.3906C29.1929 24.6407 29.3334 24.9798 29.3334 25.3334C29.3334 25.687 29.1929 26.0262 28.9429 26.2762C28.6928 26.5263 28.3537 26.6667 28.0001 26.6667C27.6465 26.6667 27.3073 26.8072 27.0573 27.0573C26.8072 27.3073 26.6668 27.6465 26.6668 28.0001V29.3334C26.6668 29.687 26.8072 30.0262 27.0573 30.2762C27.3073 30.5263 27.6465 30.6667 28.0001 30.6667C28.3537 30.6667 28.6928 30.5263 28.9429 30.2762C29.1929 30.0262 29.3334 29.687 29.3334 29.3334V29.0934C30.2152 28.7734 30.9566 28.1537 31.4278 27.3426C31.899 26.5314 32.0701 25.5805 31.9113 24.6559C31.7524 23.7314 31.2737 22.8921 30.5587 22.2848C29.8438 21.6774 28.9381 21.3407 28.0001 21.3334Z" fill="#6C5AD0"/>
</svg>
