<svg width="56" height="56" viewBox="0 0 56 56" fill="none" xmlns="http://www.w3.org/2000/svg">
<rect width="56" height="56" rx="16" fill="#FAFAFA"/>
<path d="M17.3333 31.2801C17.3333 30.9265 17.1928 30.5873 16.9428 30.3373C16.6927 30.0872 16.3536 29.9467 16 29.9467C15.6463 29.9467 15.3072 30.0872 15.0572 30.3373C14.8071 30.5873 14.6666 30.9265 14.6666 31.2801V32.6134C14.6666 32.967 14.8071 33.3062 15.0572 33.5562C15.3072 33.8063 15.6463 33.9467 16 33.9467H17.3333C17.6869 33.9467 18.0261 33.8063 18.2761 33.5562C18.5261 33.3062 18.6666 32.967 18.6666 32.6134C18.6666 32.2598 18.5261 31.9207 18.2761 31.6706C18.0261 31.4206 17.6869 31.2801 17.3333 31.2801ZM22.9066 17.3334H25.7066C26.0602 17.3334 26.3994 17.1929 26.6494 16.9429C26.8995 16.6928 27.04 16.3537 27.04 16.0001C27.04 15.6465 26.8995 15.3073 26.6494 15.0573C26.3994 14.8072 26.0602 14.6667 25.7066 14.6667H22.9066C22.553 14.6667 22.2139 14.8072 21.9638 15.0573C21.7138 15.3073 21.5733 15.6465 21.5733 16.0001C21.5733 16.3537 21.7138 16.6928 21.9638 16.9429C22.2139 17.1929 22.553 17.3334 22.9066 17.3334ZM31.28 17.3334C31.28 17.687 31.4204 18.0262 31.6705 18.2762C31.9205 18.5263 32.2597 18.6667 32.6133 18.6667C32.9669 18.6667 33.3061 18.5263 33.5561 18.2762C33.8061 18.0262 33.9466 17.687 33.9466 17.3334V16.0001C33.9466 15.6465 33.8061 15.3073 33.5561 15.0573C33.3061 14.8072 32.9669 14.6667 32.6133 14.6667H31.28C30.9263 14.6667 30.5872 14.8072 30.3371 15.0573C30.0871 15.3073 29.9466 15.6465 29.9466 16.0001C29.9466 16.3537 30.0871 16.6928 30.3371 16.9429C30.5872 17.1929 30.9263 17.3334 31.28 17.3334ZM17.3333 14.6667H16C15.6463 14.6667 15.3072 14.8072 15.0572 15.0573C14.8071 15.3073 14.6666 15.6465 14.6666 16.0001V17.3334C14.6666 17.687 14.8071 18.0262 15.0572 18.2762C15.3072 18.5263 15.6463 18.6667 16 18.6667C16.3536 18.6667 16.6927 18.5263 16.9428 18.2762C17.1928 18.0262 17.3333 17.687 17.3333 17.3334C17.6869 17.3334 18.0261 17.1929 18.2761 16.9429C18.5261 16.6928 18.6666 16.3537 18.6666 16.0001C18.6666 15.6465 18.5261 15.3073 18.2761 15.0573C18.0261 14.8072 17.6869 14.6667 17.3333 14.6667ZM16 27.0401C16.3536 27.0401 16.6927 26.8996 16.9428 26.6496C17.1928 26.3995 17.3333 26.0604 17.3333 25.7067V22.9067C17.3333 22.5531 17.1928 22.214 16.9428 21.9639C16.6927 21.7139 16.3536 21.5734 16 21.5734C15.6463 21.5734 15.3072 21.7139 15.0572 21.9639C14.8071 22.214 14.6666 22.5531 14.6666 22.9067V25.7067C14.6666 26.0604 14.8071 26.3995 15.0572 26.6496C15.3072 26.8996 15.6463 27.0401 16 27.0401ZM33.0933 38.6667H30.2933C29.9397 38.6667 29.6005 38.8072 29.3505 39.0573C29.1004 39.3073 28.96 39.6465 28.96 40.0001C28.96 40.3537 29.1004 40.6928 29.3505 40.9429C29.6005 41.1929 29.9397 41.3334 30.2933 41.3334H33.0933C33.4469 41.3334 33.7861 41.1929 34.0361 40.9429C34.2861 40.6928 34.4266 40.3537 34.4266 40.0001C34.4266 39.6465 34.2861 39.3073 34.0361 39.0573C33.7861 38.8072 33.4469 38.6667 33.0933 38.6667ZM40 22.0534H38.6666C38.313 22.0534 37.9739 22.1939 37.7238 22.4439C37.4738 22.694 37.3333 23.0331 37.3333 23.3867C37.3333 23.7404 37.4738 24.0795 37.7238 24.3296C37.9739 24.5796 38.313 24.7201 38.6666 24.7201C38.6666 25.0737 38.8071 25.4128 39.0571 25.6629C39.3072 25.9129 39.6463 26.0534 40 26.0534C40.3536 26.0534 40.6927 25.9129 40.9428 25.6629C41.1928 25.4128 41.3333 25.0737 41.3333 24.7201V23.3867C41.3333 23.0331 41.1928 22.694 40.9428 22.4439C40.6927 22.1939 40.3536 22.0534 40 22.0534ZM40 28.9601C39.6463 28.9601 39.3072 29.1006 39.0571 29.3506C38.8071 29.6007 38.6666 29.9398 38.6666 30.2934V33.0934C38.6666 33.447 38.8071 33.7862 39.0571 34.0362C39.3072 34.2863 39.6463 34.4267 40 34.4267C40.3536 34.4267 40.6927 34.2863 40.9428 34.0362C41.1928 33.7862 41.3333 33.447 41.3333 33.0934V30.2934C41.3333 29.9398 41.1928 29.6007 40.9428 29.3506C40.6927 29.1006 40.3536 28.9601 40 28.9601ZM33.9466 22.0534C33.9466 21.6998 33.8061 21.3607 33.5561 21.1106C33.3061 20.8606 32.9669 20.7201 32.6133 20.7201C32.2597 20.7201 31.9205 20.8606 31.6705 21.1106C31.4204 21.3607 31.28 21.6998 31.28 22.0534H23.3866C23.033 22.0534 22.6939 22.1939 22.4438 22.4439C22.1938 22.694 22.0533 23.0331 22.0533 23.3867V31.2801C21.6997 31.2801 21.3605 31.4206 21.1105 31.6706C20.8604 31.9207 20.72 32.2598 20.72 32.6134C20.72 32.967 20.8604 33.3062 21.1105 33.5562C21.3605 33.8063 21.6997 33.9467 22.0533 33.9467C22.0533 34.3004 22.1938 34.6395 22.4438 34.8896C22.6939 35.1396 23.033 35.2801 23.3866 35.2801C23.7402 35.2801 24.0794 35.1396 24.3294 34.8896C24.5795 34.6395 24.72 34.3004 24.72 33.9467H32.6133C32.7884 33.9467 32.9618 33.9123 33.1235 33.8453C33.2853 33.7782 33.4323 33.68 33.5561 33.5562C33.6799 33.4324 33.7781 33.2854 33.8451 33.1237C33.9121 32.9619 33.9466 32.7885 33.9466 32.6134V24.7201C34.3002 24.7201 34.6394 24.5796 34.8894 24.3296C35.1395 24.0795 35.28 23.7404 35.28 23.3867C35.28 23.0331 35.1395 22.694 34.8894 22.4439C34.6394 22.1939 34.3002 22.0534 33.9466 22.0534ZM31.28 31.2801H24.72V24.7201H31.28V31.2801ZM40 37.3334C39.6463 37.3334 39.3072 37.4739 39.0571 37.7239C38.8071 37.974 38.6666 38.3131 38.6666 38.6667C38.313 38.6667 37.9739 38.8072 37.7238 39.0573C37.4738 39.3073 37.3333 39.6465 37.3333 40.0001C37.3333 40.3537 37.4738 40.6928 37.7238 40.9429C37.9739 41.1929 38.313 41.3334 38.6666 41.3334H40C40.3536 41.3334 40.6927 41.1929 40.9428 40.9429C41.1928 40.6928 41.3333 40.3537 41.3333 40.0001V38.6667C41.3333 38.3131 41.1928 37.974 40.9428 37.7239C40.6927 37.4739 40.3536 37.3334 40 37.3334ZM24.72 38.6667C24.72 38.3131 24.5795 37.974 24.3294 37.7239C24.0794 37.4739 23.7402 37.3334 23.3866 37.3334C23.033 37.3334 22.6939 37.4739 22.4438 37.7239C22.1938 37.974 22.0533 38.3131 22.0533 38.6667V40.0001C22.0533 40.3537 22.1938 40.6928 22.4438 40.9429C22.6939 41.1929 23.033 41.3334 23.3866 41.3334H24.72C25.0736 41.3334 25.4127 41.1929 25.6628 40.9429C25.9128 40.6928 26.0533 40.3537 26.0533 40.0001C26.0533 39.6465 25.9128 39.3073 25.6628 39.0573C25.4127 38.8072 25.0736 38.6667 24.72 38.6667Z" fill="#6C5AD0"/>
</svg>
