<svg width="56" height="56" viewBox="0 0 56 56" fill="none" xmlns="http://www.w3.org/2000/svg">
<rect width="56" height="56" rx="16" fill="#FAFAFA"/>
<path d="M38.6667 14.6667H25.3334C24.2725 14.6667 23.2551 15.0882 22.5049 15.8383C21.7548 16.5885 21.3334 17.6059 21.3334 18.6667V28.0001C21.3334 29.0609 21.7548 30.0784 22.5049 30.8285C23.2551 31.5787 24.2725 32.0001 25.3334 32.0001H38.6667C39.7276 32.0001 40.745 31.5787 41.4951 30.8285C42.2453 30.0784 42.6667 29.0609 42.6667 28.0001V18.6667C42.6667 17.6059 42.2453 16.5885 41.4951 15.8383C40.745 15.0882 39.7276 14.6667 38.6667 14.6667ZM40 28.0001C40 28.3537 39.8596 28.6928 39.6095 28.9429C39.3595 29.1929 39.0203 29.3334 38.6667 29.3334H25.3334C24.9798 29.3334 24.6406 29.1929 24.3906 28.9429C24.1405 28.6928 24 28.3537 24 28.0001V18.6667C24 18.3131 24.1405 17.974 24.3906 17.7239C24.6406 17.4739 24.9798 17.3334 25.3334 17.3334H38.6667C39.0203 17.3334 39.3595 17.4739 39.6095 17.7239C39.8596 17.974 40 18.3131 40 18.6667V28.0001ZM35.3334 22.6667C34.8398 22.6684 34.3645 22.8538 34 23.1867C33.7133 22.9261 33.3571 22.7544 32.9746 22.6925C32.5922 22.6305 32.2 22.681 31.8456 22.8378C31.4913 22.9945 31.1902 23.2508 30.9788 23.5755C30.7674 23.9002 30.6548 24.2793 30.6548 24.6667C30.6548 25.0542 30.7674 25.4333 30.9788 25.758C31.1902 26.0827 31.4913 26.339 31.8456 26.4957C32.2 26.6525 32.5922 26.703 32.9746 26.641C33.3571 26.5791 33.7133 26.4073 34 26.1467C34.2408 26.3656 34.5314 26.5224 34.8464 26.6035C35.1615 26.6847 35.4917 26.6877 35.8082 26.6124C36.1247 26.5371 36.4181 26.3857 36.6629 26.1713C36.9076 25.9569 37.0964 25.6861 37.2128 25.3823C37.3292 25.0784 37.3698 24.7508 37.3309 24.4278C37.292 24.1047 37.1749 23.796 36.9897 23.5285C36.8046 23.261 36.5569 23.0426 36.2683 22.8925C35.9797 22.7423 35.6587 22.6648 35.3334 22.6667ZM33.3334 34.6667C32.9798 34.6667 32.6406 34.8072 32.3906 35.0573C32.1405 35.3073 32 35.6465 32 36.0001V37.3334C32 37.687 31.8596 38.0262 31.6095 38.2762C31.3595 38.5263 31.0203 38.6667 30.6667 38.6667H17.3334C16.9798 38.6667 16.6406 38.5263 16.3906 38.2762C16.1405 38.0262 16 37.687 16 37.3334V32.0001H17.3334C17.687 32.0001 18.0261 31.8596 18.2762 31.6096C18.5262 31.3595 18.6667 31.0204 18.6667 30.6667C18.6667 30.3131 18.5262 29.974 18.2762 29.7239C18.0261 29.4739 17.687 29.3334 17.3334 29.3334H16V28.0001C16 27.6465 16.1405 27.3073 16.3906 27.0573C16.6406 26.8072 16.9798 26.6667 17.3334 26.6667C17.687 26.6667 18.0261 26.5263 18.2762 26.2762C18.5262 26.0262 18.6667 25.687 18.6667 25.3334C18.6667 24.9798 18.5262 24.6407 18.2762 24.3906C18.0261 24.1406 17.687 24.0001 17.3334 24.0001C16.2725 24.0001 15.2551 24.4215 14.5049 25.1717C13.7548 25.9218 13.3334 26.9392 13.3334 28.0001V37.3334C13.3334 38.3943 13.7548 39.4117 14.5049 40.1618C15.2551 40.912 16.2725 41.3334 17.3334 41.3334H30.6667C31.7276 41.3334 32.745 40.912 33.4951 40.1618C34.2453 39.4117 34.6667 38.3943 34.6667 37.3334V36.0001C34.6667 35.6465 34.5262 35.3073 34.2762 35.0573C34.0261 34.8072 33.687 34.6667 33.3334 34.6667ZM20 36.0001H21.3334C21.687 36.0001 22.0261 35.8596 22.2762 35.6096C22.5262 35.3595 22.6667 35.0204 22.6667 34.6667C22.6667 34.3131 22.5262 33.974 22.2762 33.7239C22.0261 33.4739 21.687 33.3334 21.3334 33.3334H20C19.6464 33.3334 19.3073 33.4739 19.0572 33.7239C18.8072 33.974 18.6667 34.3131 18.6667 34.6667C18.6667 35.0204 18.8072 35.3595 19.0572 35.6096C19.3073 35.8596 19.6464 36.0001 20 36.0001Z" fill="#6C5AD0"/>
</svg>
