<?xml version="1.0" encoding="utf-8"?>
<!-- Generator: Adobe Illustrator 24.0.1, SVG Export Plug-In . SVG Version: 6.00 Build 0)  -->
<svg version="1.1" id="Layer_1" xmlns="http://www.w3.org/2000/svg" xmlns:xlink="http://www.w3.org/1999/xlink" x="0px" y="0px"
	 viewBox="0 0 56 56" style="enable-background:new 0 0 56 56;" xml:space="preserve">
<style type="text/css">
	.st0{fill:#FAFAFA;}
	.st1{fill:#6F5DD1;}
</style>
<path class="st0" d="M56.1,14.2c0,9.2,0,18.5,0,27.7c0,0.1-0.1,0.1-0.1,0.1c-0.1,1-0.3,1.9-0.6,2.8c-0.3,1-0.7,2-1.3,2.9
	c-0.6,1.2-1.4,2.3-2.4,3.2c-0.6,0.6-1.3,1.2-2,1.7c-1.4,1.1-2.9,1.9-4.5,2.4c-1,0.4-2.1,0.6-3.2,0.7c0,0-0.1,0.1-0.1,0.1
	c-9.2,0-18.5,0-27.7,0c-0.1,0-0.1-0.1-0.1-0.1c-1-0.1-1.9-0.3-2.8-0.6c-1-0.3-2-0.7-2.9-1.3c-1.2-0.6-2.3-1.4-3.2-2.4
	c-0.6-0.6-1.2-1.3-1.7-2c-1.1-1.4-1.9-2.9-2.4-4.5c-0.4-1-0.6-2.1-0.7-3.2c0,0-0.1-0.1-0.1-0.1c0-9.2,0-18.5,0-27.7
	c0-0.1,0.1-0.1,0.1-0.1c0.1-1,0.3-1.9,0.6-2.8c0.3-1,0.7-2,1.3-2.9C2.7,7.1,3.5,6,4.4,5.1c0.6-0.6,1.3-1.2,2-1.7
	c1.4-1.1,2.9-1.9,4.5-2.4c1-0.4,2.1-0.6,3.2-0.7c0,0,0.1-0.1,0.1-0.1c9.2,0,18.5,0,27.7,0c0.1,0,0.1,0.1,0.1,0.1
	c1,0.1,1.9,0.3,2.8,0.6c1,0.3,2,0.7,2.9,1.3C49,2.7,50.1,3.5,51,4.4c0.6,0.6,1.2,1.3,1.7,2c1.1,1.4,1.9,2.9,2.4,4.5
	c0.4,1,0.6,2.1,0.7,3.2C56,14.1,56,14.1,56.1,14.2 M44.6,40.4c0.8-0.6,1.5-1.3,2-2.2c0.4-0.8,0.7-1.7,0.8-2.6c0.1-0.5,0-1.1-0.1-1.6
	c-0.2-0.5-0.3-1.1-0.5-1.6c-0.5-1.2-1.4-2.1-2.5-2.7c-0.8-0.5-1.7-0.8-2.7-0.8c-0.7,0-1.3,0.5-1.3,1.2c0,0.8,0.5,1.4,1.2,1.4
	c0.8,0.1,1.6,0.4,2.1,1c1,1,1.4,2.2,1,3.7c-0.4,1.6-2,2.8-3.6,2.8c-0.4,0-0.7,0-1.1,0c-6.9,0-13.8,0-20.7,0c-1.5,0-2.8-0.4-4-1.2
	c-1.4-0.9-2.4-2.1-3.1-3.7c-0.4-1-0.6-2-0.6-3c0-1.5,0.3-2.9,1.1-4.2c0.5-0.9,1.2-1.6,2-2.3c1-0.7,2-1.3,3.2-1.5
	c0.9-0.2,1.7-0.3,2.6-0.2c0.7,0.1,1.1-0.2,1.4-0.8c0.2-0.3,0.3-0.7,0.5-1c1.1-1.9,2.8-3.1,4.9-3.7c1-0.3,2-0.3,3-0.2
	c1.2,0.1,2.4,0.5,3.4,1.2c1.4,0.9,2.4,2,3,3.5c0.5,1,0.7,2.1,0.7,3.2c0,1.4-0.3,2.7-0.9,3.9c-0.3,0.7-0.1,1.4,0.6,1.8
	c0.7,0.3,1.4,0,1.8-0.6c0.5-1.1,0.9-2.2,1.1-3.4c0.2-1.1,0.2-2.3-0.1-3.4c-0.3-1.5-0.9-2.9-1.7-4.2c-0.6-0.8-1.3-1.6-2.1-2.2
	c-1.2-0.9-2.5-1.6-4-2c-0.6-0.1-1.1-0.3-1.7-0.3c-0.9,0-1.9-0.1-2.8,0.1c-0.5,0.1-1,0.2-1.5,0.4c-0.9,0.3-1.7,0.7-2.5,1.1
	c-1.6,1-2.8,2.2-3.7,3.8c-0.1,0.2-0.2,0.2-0.4,0.2c-0.6,0-1.2,0.1-1.8,0.2c-1.4,0.2-2.6,0.7-3.8,1.4c-1.1,0.7-2,1.5-2.8,2.5
	c-1,1.2-1.6,2.5-2,4c-0.3,1.1-0.4,2.2-0.3,3.3c0.1,1.8,0.7,3.5,1.6,5.1c0.7,1.1,1.6,2.1,2.6,2.9c0.6,0.5,1.4,0.9,2.1,1.2
	c0.7,0.3,1.4,0.5,2.1,0.7c0.4,0.1,0.9,0.2,1.4,0.2c7.3,0,14.5,0,21.8,0c0.5,0,1-0.1,1.5-0.1C42.9,41.4,43.8,41,44.6,40.4 M19.2,29.6
	c0-0.4,0-0.9,0-1.3c0-0.6-0.4-1-1-1c-0.6,0-0.9,0.4-0.9,1c0,0.5,0,1.1,0,1.6c0,0.3-0.1,0.4-0.4,0.4c-0.6,0-1.1,0-1.7,0
	c-0.6,0-1,0.4-1,0.9c0,0.5,0.4,1,1,1c0.6,0,1.1,0,1.7,0c0.3,0,0.3,0.1,0.3,0.3c0,0.6,0,1.2,0,1.8c0,0.4,0.3,0.7,0.7,0.8
	c0.7,0.1,1.2-0.3,1.2-1c0-0.5,0-1.1,0-1.7c0-0.4,0-0.4,0.4-0.4c0.6,0,1.1,0,1.7,0c0.6,0,1-0.4,1-0.9c0-0.5-0.4-1-1-1
	c-0.5,0-0.9,0-1.4,0C19.1,30.3,19.2,30.4,19.2,29.6z"/>
<path class="st0" d="M44.6,40.4c-0.8,0.6-1.6,0.9-2.6,1.1c-0.5,0.1-1,0.1-1.5,0.1c-7.3,0-14.5,0-21.8,0c-0.5,0-0.9-0.1-1.4-0.2
	c-0.7-0.2-1.5-0.4-2.1-0.7c-0.7-0.3-1.4-0.8-2.1-1.2c-1.1-0.8-1.9-1.8-2.6-2.9c-1-1.6-1.5-3.2-1.6-5.1c-0.1-1.1,0-2.3,0.3-3.3
	c0.4-1.5,1.1-2.8,2-4c0.8-1,1.7-1.8,2.8-2.5c1.2-0.7,2.4-1.2,3.8-1.4c0.6-0.1,1.2-0.1,1.8-0.2c0.2,0,0.3-0.1,0.4-0.2
	c0.9-1.6,2.1-2.9,3.7-3.8c0.8-0.5,1.6-0.9,2.5-1.1c0.5-0.2,1-0.2,1.5-0.4c0.9-0.2,1.9-0.1,2.8-0.1c0.6,0,1.1,0.2,1.7,0.3
	c1.5,0.4,2.8,1.1,4,2c0.8,0.6,1.5,1.4,2.1,2.2c0.9,1.3,1.5,2.7,1.7,4.2c0.2,1.1,0.2,2.3,0.1,3.4c-0.2,1.2-0.5,2.3-1.1,3.4
	c-0.4,0.7-1.1,1-1.8,0.6c-0.7-0.3-0.9-1.1-0.6-1.8c0.6-1.2,0.9-2.5,0.9-3.9c0-1.1-0.3-2.2-0.7-3.2c-0.7-1.5-1.7-2.6-3-3.5
	c-1-0.7-2.2-1.1-3.4-1.2c-1-0.1-2.1-0.1-3,0.2c-2.1,0.6-3.7,1.8-4.9,3.7c-0.2,0.3-0.3,0.7-0.5,1c-0.3,0.6-0.8,0.9-1.4,0.8
	c-0.9-0.1-1.8,0-2.6,0.2c-1.2,0.3-2.2,0.8-3.2,1.5c-0.8,0.6-1.5,1.4-2,2.3c-0.8,1.3-1.1,2.7-1.1,4.2c0,1,0.2,2,0.6,3
	c0.6,1.6,1.7,2.8,3.1,3.7c1.2,0.8,2.5,1.2,4,1.2c6.9,0,13.8,0,20.7,0c0.4,0,0.7,0,1.1,0c1.6,0,3.2-1.2,3.6-2.8c0.3-1.4,0-2.7-1-3.7
	c-0.6-0.6-1.3-0.9-2.1-1c-0.7-0.1-1.2-0.7-1.2-1.4c0-0.6,0.6-1.2,1.3-1.2c1,0,1.8,0.3,2.7,0.8c1.1,0.7,2,1.6,2.5,2.7
	c0.2,0.5,0.4,1.1,0.5,1.6c0.2,0.5,0.2,1,0.1,1.6c-0.1,0.9-0.3,1.8-0.8,2.6C46.1,39.1,45.4,39.8,44.6,40.4z"/>
<path class="st0" d="M19.2,29.7c0,0.7-0.1,0.6,0.6,0.6c0.5,0,0.9,0,1.4,0c0.6,0,1,0.4,1,1c0,0.5-0.4,0.9-1,0.9c-0.6,0-1.1,0-1.7,0
	c-0.3,0-0.4,0-0.4,0.4c0,0.6,0,1.1,0,1.7c0,0.7-0.6,1.1-1.2,1c-0.4-0.1-0.7-0.4-0.7-0.8c0-0.6,0-1.2,0-1.8c0-0.3-0.1-0.4-0.3-0.3
	c-0.6,0-1.1,0-1.7,0c-0.6,0-1-0.5-1-1c0-0.6,0.4-0.9,1-0.9c0.6,0,1.1,0,1.7,0c0.3,0,0.4-0.1,0.4-0.4c0-0.5,0-1.1,0-1.6
	c0-0.6,0.4-1,0.9-1c0.6,0,1,0.4,1,1C19.2,28.8,19.2,29.2,19.2,29.7z"/>
<g id="Ua6lmR.tif">
	<g>
		<path class="st1" d="M27.7,46.8c-0.3,0-0.6,0-0.9,0c-0.5-0.2-1-0.4-1.5-0.6c-4.8-2.3-8.4-5.8-11-10.5c-1.7-3.2-2.7-6.6-2.9-10.2
			c-0.1-1.8-0.1-3.6-0.1-5.4c0-1.3,0.7-2.3,1.9-2.7c1.8-0.7,3.1-2,3.8-3.8c0.5-1.2,1.4-1.9,2.7-1.9c5,0,10.1,0,15.1,0
			c1.3,0,2.3,0.7,2.7,1.9c0.7,1.9,2,3.2,3.8,3.8c0.7,0.3,1.3,0.8,1.6,1.5c0.1,0.2,0.2,0.4,0.2,0.7c0,1.9,0,3.7,0,5.6
			c0,0.1,0,0.2-0.1,0.3c-0.2,1.2-0.3,2.4-0.5,3.6C40.9,37.5,34.8,44.2,27.7,46.8z M27.2,13.8c-2.5,0-5,0-7.5,0
			c-0.5,0-0.7,0.1-0.9,0.6c-0.9,2.4-2.5,4-4.9,4.9c-0.4,0.2-0.6,0.4-0.6,0.9c0,1.3,0,2.7,0,4c0,1.6,0.2,3.2,0.6,4.8
			c1.8,7.2,6,12.4,12.8,15.6c0.4,0.2,0.7,0.2,1.1,0c4.1-1.9,7.3-4.7,9.7-8.4c2.1-3.3,3.3-6.9,3.5-10.8c0.1-1.7,0.1-3.4,0.1-5.1
			c0-0.6-0.1-0.8-0.7-1c-2.3-0.9-3.9-2.5-4.8-4.8c-0.2-0.5-0.4-0.7-1-0.7C32.2,13.8,29.7,13.8,27.2,13.8z"/>
		<path class="st1" d="M22.9,25c0-1,0-1.9,0-2.9c0-2,1.4-3.7,3.4-4.2c2.6-0.6,5.2,1.4,5.2,4c0,0.9,0,1.8,0,2.7c0,0.1,0,0.2,0,0.4
			c0.3,0,0.5,0.1,0.7,0.1c1.1,0.3,1.8,1.2,1.8,2.3c0,2.1,0,4.2,0,6.3C34,36.1,32,38,29.7,38.1c-1.6,0-3.2,0-4.8,0
			c-2.3,0-4.3-2-4.4-4.3c-0.1-2.1,0-4.2,0-6.3c0-1.2,1-2.2,2.2-2.3C22.7,25.1,22.8,25,22.9,25z M27.3,27.1c-1.4,0-2.8,0-4.2,0
			c-0.5,0-0.6,0.1-0.6,0.6c0,1.9,0,3.8,0,5.7c0,1.6,1.1,2.6,2.7,2.6c1.4,0,2.8,0,4.2,0C31,36,32,35,32,33.3c0-1.8,0-3.7,0-5.5
			c0-0.6-0.1-0.7-0.7-0.7C30,27.1,28.6,27.1,27.3,27.1z M25,25c1.5,0,3,0,4.4,0c0-1.1,0.1-2.2,0-3.2c-0.1-1.1-1.1-1.9-2.2-1.9
			c-1.1,0-2.1,0.9-2.2,1.9C25,22.9,25,23.9,25,25z"/>
		<path class="st1" d="M26.2,31.6c0-0.3,0-0.6,0-0.9c0-0.6,0.4-1.1,1-1.1c0.6,0,1,0.4,1,1c0,0.6,0,1.3,0,1.9c0,0.6-0.4,1-1,1
			c-0.6,0-1-0.4-1-1C26.2,32.2,26.2,31.9,26.2,31.6z"/>
	</g>
</g>
</svg>
